<svg xmlns="http://www.w3.org/2000/svg" version="1.1" xmlns:xlink="http://www.w3.org/1999/xlink" xmlns:svgjs="http://svgjs.dev/svgjs" width="1440" height="560" preserveAspectRatio="none" viewBox="0 0 1440 560"><g mask="url(&quot;#SvgjsMask1000&quot;)" fill="none"><rect width="1440" height="560" x="0" y="0" fill="#1e3266"></rect><path d="M1512 560L0 560 L0 331.29Q52.61 311.9, 72 364.52Q83.5 304.02, 144 315.52Q213.17 264.69, 264 333.85Q320.6 318.45, 336 375.05Q362.64 329.69, 408 356.33Q462.47 290.8, 528 345.27Q538.38 283.65, 600 294.04Q641.44 263.49, 672 304.93Q734.48 295.41, 744 357.89Q772.75 314.64, 816 343.4Q836.56 291.95, 888 312.51Q970.68 275.19, 1008 357.88Q1061.72 291.61, 1128 345.33Q1177.96 275.29, 1248 325.26Q1265.65 270.91, 1320 288.56Q1364.73 261.29, 1392 306.02Q1480.97 274.99, 1512 363.95z" fill="#182f5d"></path><path d="M1536 560L0 560 L0 405.32Q43.89 377.21, 72 421.1Q115.53 344.63, 192 388.17Q237.05 313.22, 312 358.26Q377.68 303.94, 432 369.62Q480 345.62, 504 393.62Q545.57 315.19, 624 356.75Q720.5 333.25, 744 429.75Q812.78 378.53, 864 447.31Q890.6 353.91, 984 380.51Q1008.8 333.31, 1056 358.1Q1111.24 341.34, 1128 396.58Q1158.6 355.18, 1200 385.78Q1247.55 361.32, 1272 408.87Q1324.85 389.72, 1344 442.57Q1358.08 384.64, 1416 398.72Q1492.51 355.24, 1536 431.75z" fill="#25467d"></path><path d="M1464 560L0 560 L0 507.6Q20.44 408.05, 120 428.49Q162.89 399.38, 192 442.27Q274.58 404.85, 312 487.42Q378.38 433.8, 432 500.17Q473.19 469.36, 504 510.55Q529.88 416.43, 624 442.3Q666.39 412.69, 696 455.09Q761.36 400.45, 816 465.81Q833.68 411.49, 888 429.17Q930.84 400.01, 960 442.86Q1055.62 418.48, 1080 514.1Q1098.31 412.41, 1200 430.72Q1273.27 383.99, 1320 457.26Q1369.37 434.63, 1392 483.99Q1443.08 463.06, 1464 514.14z" fill="#356cb1"></path><path d="M1488 560L0 560 L0 549.32Q38.3 515.63, 72 553.93Q108.2 470.13, 192 506.33Q220.7 463.03, 264 491.73Q336.88 444.61, 384 517.48Q436.11 497.59, 456 549.7Q504.96 526.66, 528 575.63Q545.36 520.99, 600 538.35Q683.88 502.23, 720 586.11Q722.42 516.53, 792 518.94Q818.99 473.93, 864 500.92Q953.05 469.97, 984 559.01Q1022.29 477.3, 1104 515.59Q1192.43 484.02, 1224 572.45Q1267.82 496.27, 1344 540.09Q1360.13 484.23, 1416 500.36Q1461.69 474.06, 1488 519.75z" fill="white"></path></g><defs><mask id="SvgjsMask1000"><rect width="1440" height="560" fill="#ffffff"></rect></mask></defs></svg>