<svg xmlns="http://www.w3.org/2000/svg" version="1.1" xmlns:xlink="http://www.w3.org/1999/xlink" xmlns:svgjs="http://svgjs.dev/svgjs" width="1440" height="560" preserveAspectRatio="none" viewBox="0 0 1440 560"><g mask="url(&quot;#SvgjsMask1000&quot;)" fill="none"><rect width="1440" height="560" x="0" y="0" fill="#0e2a47"></rect><path d="M1024.69 556.69a45.81 45.81 0 1 0-62.07-67.39z" fill="#d3b714"></path><path d="M540.76 276.7a21.68 21.68 0 1 0 34.44-26.34z" fill="#e73635"></path><path d="M62.71 8.62L76.31 8.62L76.31 58.54L62.71 58.54z" fill="#037b0b"></path><path d="M784.09 415.71L784.85 415.71L784.85 444.97L784.09 444.97z" fill="#d3b714"></path><path d="M1039.81 369.73L1085.62 369.73L1085.62 413.55L1039.81 413.55z" fill="#e73635"></path><path d="M236.18 15.21a43.8 43.8 0 1 0 68.45 54.66z" fill="#e73635"></path><path d="M437.09 412.08a34.15 34.15 0 1 0 31.35-60.68z" stroke="#037b0b"></path><path d="M1090.84 89.3L1107.22 89.3L1107.22 142.38L1090.84 142.38z" stroke="#037b0b"></path><path d="M1310.61 153.06L1341.23 153.06L1341.23 194.5L1310.61 194.5z" fill="#d3b714"></path><path d="M984.9 270.65 a19.02 19.02 0 1 0 38.04 0 a19.02 19.02 0 1 0 -38.04 0z" stroke="#037b0b"></path><path d="M1153.51 211.01L1190.61 211.01L1190.61 248.11L1153.51 248.11z" stroke="#e73635"></path><path d="M929.6 119.99L969 119.99L969 137.76L929.6 137.76z" fill="#037b0b"></path><path d="M522.19-16.34a45.56 45.56 0 1 0-76.59 49.38z" fill="#037b0b"></path><path d="M62.64 115.68 a52.48 52.48 0 1 0 104.96 0 a52.48 52.48 0 1 0 -104.96 0z" fill="#037b0b"></path><path d="M815.84 499.46L853.49 499.46L853.49 537.11L815.84 537.11z" fill="#e73635"></path><path d="M1113.24 398.74a4.22 4.22 0 1 0 2.75 7.98z" stroke="#037b0b"></path><path d="M900.27 377.47 a52.89 52.89 0 1 0 105.78 0 a52.89 52.89 0 1 0 -105.78 0z" stroke="#e73635"></path><path d="M542.37 366.53L566.57 366.53L566.57 390.73L542.37 390.73z" stroke="#e73635"></path><path d="M376.04 68.39a55.67 55.67 0 1 0-65.15 90.28z" stroke="#037b0b"></path><path d="M872.19 243.21L901.62 243.21L901.62 272.64L872.19 272.64z" stroke="#d3b714"></path><path d="M1416.75 118.99L1446.9 118.99L1446.9 159.41L1416.75 159.41z" stroke="#e73635"></path><path d="M330.55 454.69L337.36 454.69L337.36 468.23L330.55 468.23z" fill="#e73635"></path><path d="M1050.16 71.96a48.01 48.01 0 1 0-94.25-18.33z" stroke="#d3b714"></path><path d="M1153.86 213L1198.81 213L1198.81 214.04L1153.86 214.04z" fill="#e73635"></path><path d="M1083.49 533.22L1128.4 533.22L1128.4 546.27L1083.49 546.27z" stroke="#e73635"></path><path d="M1152.68 262.23L1175.08 262.23L1175.08 305.72L1152.68 305.72z" fill="#d3b714"></path><path d="M896.18 15.39 a49.22 49.22 0 1 0 98.44 0 a49.22 49.22 0 1 0 -98.44 0z" stroke="#037b0b"></path><path d="M1009.76 249.56 a4.81 4.81 0 1 0 9.62 0 a4.81 4.81 0 1 0 -9.62 0z" fill="#037b0b"></path><path d="M1288.53 554.22L1327.4 554.22L1327.4 572.08L1288.53 572.08z" stroke="#d3b714"></path><path d="M102.19 351.1a10.41 10.41 0 1 0-19.72 6.66z" fill="#d3b714"></path><path d="M1121.01 454.74L1127.63 454.74L1127.63 480.14L1121.01 480.14z" stroke="#d3b714"></path><path d="M127.18 127.41 a26.68 26.68 0 1 0 53.36 0 a26.68 26.68 0 1 0 -53.36 0z" stroke="#e73635"></path><path d="M1281.33 225.21L1328.51 225.21L1328.51 272.39L1281.33 272.39z" stroke="#e73635"></path></g><defs><mask id="SvgjsMask1000"><rect width="1440" height="560" fill="#ffffff"></rect></mask></defs></svg>