<svg xmlns="http://www.w3.org/2000/svg" version="1.1" xmlns:xlink="http://www.w3.org/1999/xlink" xmlns:svgjs="http://svgjs.dev/svgjs" width="1440" height="560" preserveAspectRatio="none" viewBox="0 0 1440 560"><g mask="url(&quot;#SvgjsMask1004&quot;)" fill="none"><rect width="1440" height="560" x="0" y="0" fill="rgba(25, 69, 115, 1)"></rect><path d="M86.4 106.92L151.36 144.42L151.36 219.42L86.4 256.92L21.45 219.42L21.45 144.42zM21.45 219.42L86.4 256.92L86.4 331.92L21.45 369.42L-43.5 331.92L-43.5 256.92zM151.36 -5.58L216.31 31.92L216.31 106.92L151.36 144.42L86.4 106.92L86.4 31.92zM670.99 -5.58L735.94 31.92L735.94 106.92L670.99 144.42L606.03 106.92L606.03 31.92zM735.94 106.92L800.9 144.42L800.9 219.42L735.94 256.92L670.99 219.42L670.99 144.42zM800.89 444.42L865.85 481.92L865.85 556.92L800.89 594.42L735.94 556.92L735.94 481.92zM930.8 219.42L995.76 256.92L995.76 331.92L930.8 369.42L865.85 331.92L865.85 256.92zM930.8 444.42L995.76 481.92L995.76 556.92L930.8 594.42L865.85 556.92L865.85 481.92zM995.76 556.92L1060.71 594.42L1060.71 669.42L995.76 706.92L930.8 669.42L930.8 594.42zM1060.71 -5.58L1125.66 31.92L1125.66 106.92L1060.71 144.42L995.76 106.92L995.76 31.92zM1125.66 106.92L1190.62 144.42L1190.62 219.42L1125.66 256.92L1060.71 219.42L1060.71 144.42zM1060.71 219.42L1125.66 256.92L1125.66 331.92L1060.71 369.42L995.76 331.92L995.76 256.92zM1125.66 556.92L1190.62 594.42L1190.62 669.42L1125.66 706.92L1060.71 669.42L1060.71 594.42zM1255.57 331.92L1320.52 369.42L1320.52 444.42L1255.57 481.92L1190.62 444.42L1190.62 369.42zM1515.39 331.92L1580.34 369.42L1580.34 444.42L1515.39 481.92L1450.43 444.42L1450.43 369.42z" stroke="rgba(0, 128, 255, 1)" stroke-width="2"></path><path d="M78.9 106.92 a7.5 7.5 0 1 0 15 0 a7.5 7.5 0 1 0 -15 0zM143.86 144.42 a7.5 7.5 0 1 0 15 0 a7.5 7.5 0 1 0 -15 0zM143.86 219.42 a7.5 7.5 0 1 0 15 0 a7.5 7.5 0 1 0 -15 0zM78.9 256.92 a7.5 7.5 0 1 0 15 0 a7.5 7.5 0 1 0 -15 0zM13.95 219.42 a7.5 7.5 0 1 0 15 0 a7.5 7.5 0 1 0 -15 0zM13.95 144.42 a7.5 7.5 0 1 0 15 0 a7.5 7.5 0 1 0 -15 0zM78.9 331.92 a7.5 7.5 0 1 0 15 0 a7.5 7.5 0 1 0 -15 0zM13.95 369.42 a7.5 7.5 0 1 0 15 0 a7.5 7.5 0 1 0 -15 0zM-51 331.92 a7.5 7.5 0 1 0 15 0 a7.5 7.5 0 1 0 -15 0zM-51 256.92 a7.5 7.5 0 1 0 15 0 a7.5 7.5 0 1 0 -15 0zM143.86 -5.58 a7.5 7.5 0 1 0 15 0 a7.5 7.5 0 1 0 -15 0zM208.81 31.92 a7.5 7.5 0 1 0 15 0 a7.5 7.5 0 1 0 -15 0zM208.81 106.92 a7.5 7.5 0 1 0 15 0 a7.5 7.5 0 1 0 -15 0zM78.9 31.92 a7.5 7.5 0 1 0 15 0 a7.5 7.5 0 1 0 -15 0zM663.49 -5.58 a7.5 7.5 0 1 0 15 0 a7.5 7.5 0 1 0 -15 0zM728.44 31.92 a7.5 7.5 0 1 0 15 0 a7.5 7.5 0 1 0 -15 0zM728.44 106.92 a7.5 7.5 0 1 0 15 0 a7.5 7.5 0 1 0 -15 0zM663.49 144.42 a7.5 7.5 0 1 0 15 0 a7.5 7.5 0 1 0 -15 0zM598.53 106.92 a7.5 7.5 0 1 0 15 0 a7.5 7.5 0 1 0 -15 0zM598.53 31.92 a7.5 7.5 0 1 0 15 0 a7.5 7.5 0 1 0 -15 0zM793.4 144.42 a7.5 7.5 0 1 0 15 0 a7.5 7.5 0 1 0 -15 0zM793.4 219.42 a7.5 7.5 0 1 0 15 0 a7.5 7.5 0 1 0 -15 0zM728.44 256.92 a7.5 7.5 0 1 0 15 0 a7.5 7.5 0 1 0 -15 0zM663.49 219.42 a7.5 7.5 0 1 0 15 0 a7.5 7.5 0 1 0 -15 0zM793.39 444.42 a7.5 7.5 0 1 0 15 0 a7.5 7.5 0 1 0 -15 0zM858.35 481.92 a7.5 7.5 0 1 0 15 0 a7.5 7.5 0 1 0 -15 0zM858.35 556.92 a7.5 7.5 0 1 0 15 0 a7.5 7.5 0 1 0 -15 0zM793.39 594.42 a7.5 7.5 0 1 0 15 0 a7.5 7.5 0 1 0 -15 0zM728.44 556.92 a7.5 7.5 0 1 0 15 0 a7.5 7.5 0 1 0 -15 0zM728.44 481.92 a7.5 7.5 0 1 0 15 0 a7.5 7.5 0 1 0 -15 0zM923.3 219.42 a7.5 7.5 0 1 0 15 0 a7.5 7.5 0 1 0 -15 0zM988.26 256.92 a7.5 7.5 0 1 0 15 0 a7.5 7.5 0 1 0 -15 0zM988.26 331.92 a7.5 7.5 0 1 0 15 0 a7.5 7.5 0 1 0 -15 0zM923.3 369.42 a7.5 7.5 0 1 0 15 0 a7.5 7.5 0 1 0 -15 0zM858.35 331.92 a7.5 7.5 0 1 0 15 0 a7.5 7.5 0 1 0 -15 0zM858.35 256.92 a7.5 7.5 0 1 0 15 0 a7.5 7.5 0 1 0 -15 0zM923.3 444.42 a7.5 7.5 0 1 0 15 0 a7.5 7.5 0 1 0 -15 0zM988.26 481.92 a7.5 7.5 0 1 0 15 0 a7.5 7.5 0 1 0 -15 0zM988.26 556.92 a7.5 7.5 0 1 0 15 0 a7.5 7.5 0 1 0 -15 0zM923.3 594.42 a7.5 7.5 0 1 0 15 0 a7.5 7.5 0 1 0 -15 0zM1053.21 594.42 a7.5 7.5 0 1 0 15 0 a7.5 7.5 0 1 0 -15 0zM1053.21 669.42 a7.5 7.5 0 1 0 15 0 a7.5 7.5 0 1 0 -15 0zM988.26 706.92 a7.5 7.5 0 1 0 15 0 a7.5 7.5 0 1 0 -15 0zM923.3 669.42 a7.5 7.5 0 1 0 15 0 a7.5 7.5 0 1 0 -15 0zM1053.21 -5.58 a7.5 7.5 0 1 0 15 0 a7.5 7.5 0 1 0 -15 0zM1118.16 31.92 a7.5 7.5 0 1 0 15 0 a7.5 7.5 0 1 0 -15 0zM1118.16 106.92 a7.5 7.5 0 1 0 15 0 a7.5 7.5 0 1 0 -15 0zM1053.21 144.42 a7.5 7.5 0 1 0 15 0 a7.5 7.5 0 1 0 -15 0zM988.26 106.92 a7.5 7.5 0 1 0 15 0 a7.5 7.5 0 1 0 -15 0zM988.26 31.92 a7.5 7.5 0 1 0 15 0 a7.5 7.5 0 1 0 -15 0zM1183.12 144.42 a7.5 7.5 0 1 0 15 0 a7.5 7.5 0 1 0 -15 0zM1183.12 219.42 a7.5 7.5 0 1 0 15 0 a7.5 7.5 0 1 0 -15 0zM1118.16 256.92 a7.5 7.5 0 1 0 15 0 a7.5 7.5 0 1 0 -15 0zM1053.21 219.42 a7.5 7.5 0 1 0 15 0 a7.5 7.5 0 1 0 -15 0zM1118.16 331.92 a7.5 7.5 0 1 0 15 0 a7.5 7.5 0 1 0 -15 0zM1053.21 369.42 a7.5 7.5 0 1 0 15 0 a7.5 7.5 0 1 0 -15 0zM1118.16 556.92 a7.5 7.5 0 1 0 15 0 a7.5 7.5 0 1 0 -15 0zM1183.12 594.42 a7.5 7.5 0 1 0 15 0 a7.5 7.5 0 1 0 -15 0zM1183.12 669.42 a7.5 7.5 0 1 0 15 0 a7.5 7.5 0 1 0 -15 0zM1118.16 706.92 a7.5 7.5 0 1 0 15 0 a7.5 7.5 0 1 0 -15 0zM1248.07 331.92 a7.5 7.5 0 1 0 15 0 a7.5 7.5 0 1 0 -15 0zM1313.02 369.42 a7.5 7.5 0 1 0 15 0 a7.5 7.5 0 1 0 -15 0zM1313.02 444.42 a7.5 7.5 0 1 0 15 0 a7.5 7.5 0 1 0 -15 0zM1248.07 481.92 a7.5 7.5 0 1 0 15 0 a7.5 7.5 0 1 0 -15 0zM1183.12 444.42 a7.5 7.5 0 1 0 15 0 a7.5 7.5 0 1 0 -15 0zM1183.12 369.42 a7.5 7.5 0 1 0 15 0 a7.5 7.5 0 1 0 -15 0zM1507.89 331.92 a7.5 7.5 0 1 0 15 0 a7.5 7.5 0 1 0 -15 0zM1572.84 369.42 a7.5 7.5 0 1 0 15 0 a7.5 7.5 0 1 0 -15 0zM1572.84 444.42 a7.5 7.5 0 1 0 15 0 a7.5 7.5 0 1 0 -15 0zM1507.89 481.92 a7.5 7.5 0 1 0 15 0 a7.5 7.5 0 1 0 -15 0zM1442.93 444.42 a7.5 7.5 0 1 0 15 0 a7.5 7.5 0 1 0 -15 0zM1442.93 369.42 a7.5 7.5 0 1 0 15 0 a7.5 7.5 0 1 0 -15 0z" fill="rgba(0, 128, 255, 1)"></path><path d="M82.91 207.72L126.22 232.72L126.22 282.72L82.91 307.72L39.61 282.72L39.61 232.72zM256.12 357.72L299.43 382.72L299.43 432.72L256.12 457.72L212.82 432.72L212.82 382.72zM212.82 432.72L256.12 457.72L256.12 507.72L212.82 532.72L169.52 507.72L169.52 457.72zM342.73 207.72L386.03 232.72L386.03 282.72L342.73 307.72L299.43 282.72L299.43 232.72zM299.43 282.72L342.73 307.72L342.73 357.72L299.43 382.72L256.12 357.72L256.12 307.72zM342.73 507.72L386.03 532.72L386.03 582.72L342.73 607.72L299.43 582.72L299.43 532.72zM386.03 132.72L429.33 157.72L429.33 207.72L386.03 232.72L342.73 207.72L342.73 157.72zM386.03 432.72L429.33 457.72L429.33 507.72L386.03 532.72L342.73 507.72L342.73 457.72zM429.33 507.72L472.64 532.72L472.64 582.72L429.33 607.72L386.03 582.72L386.03 532.72zM472.64 -17.28L515.94 7.72L515.94 57.72L472.64 82.72L429.33 57.72L429.33 7.72zM515.94 57.72L559.24 82.72L559.24 132.72L515.94 157.72L472.64 132.72L472.64 82.72zM515.94 357.72L559.24 382.72L559.24 432.72L515.94 457.72L472.64 432.72L472.64 382.72zM559.24 282.72L602.54 307.72L602.54 357.72L559.24 382.72L515.94 357.72L515.94 307.72zM645.85 -17.28L689.15 7.72L689.15 57.72L645.85 82.72L602.54 57.72L602.54 7.72zM819.06 -17.28L862.36 7.72L862.36 57.72L819.06 82.72L775.75 57.72L775.75 7.72zM862.36 57.72L905.66 82.72L905.66 132.72L862.36 157.72L819.06 132.72L819.06 82.72zM819.06 132.72L862.36 157.72L862.36 207.72L819.06 232.72L775.75 207.72L775.75 157.72zM948.96 207.72L992.27 232.72L992.27 282.72L948.96 307.72L905.66 282.72L905.66 232.72zM992.27 -17.28L1035.57 7.72L1035.57 57.72L992.27 82.72L948.96 57.72L948.96 7.72zM992.27 132.72L1035.57 157.72L1035.57 207.72L992.27 232.72L948.96 207.72L948.96 157.72zM1035.57 207.72L1078.87 232.72L1078.87 282.72L1035.57 307.72L992.27 282.72L992.27 232.72zM992.27 432.72L1035.57 457.72L1035.57 507.72L992.27 532.72L948.96 507.72L948.96 457.72zM1165.47 132.72L1208.78 157.72L1208.78 207.72L1165.47 232.72L1122.17 207.72L1122.17 157.72zM1208.78 507.72L1252.08 532.72L1252.08 582.72L1208.78 607.72L1165.47 582.72L1165.47 532.72zM1252.08 432.72L1295.38 457.72L1295.38 507.72L1252.08 532.72L1208.78 507.72L1208.78 457.72zM1468.59 207.72L1511.89 232.72L1511.89 282.72L1468.59 307.72L1425.29 282.72L1425.29 232.72zM1425.29 282.72L1468.59 307.72L1468.59 357.72L1425.29 382.72L1381.99 357.72L1381.99 307.72z" stroke="rgba(0, 126, 255, 0.93)" stroke-width="2"></path></g><defs><mask id="SvgjsMask1004"><rect width="1440" height="560" fill="#ffffff"></rect></mask></defs></svg>