<svg xmlns="http://www.w3.org/2000/svg" version="1.1" xmlns:xlink="http://www.w3.org/1999/xlink" xmlns:svgjs="http://svgjs.dev/svgjs" width="1440" height="560" preserveAspectRatio="none" viewBox="0 0 1440 560"><g clip-path="url(&quot;#SvgjsClipPath1000&quot;)" fill="none"><rect width="1440" height="560" x="0" y="0" fill="#0e2a47"></rect><circle r="93.335" cx="-81.27" cy="-40.83" stroke="#365aa3" stroke-opacity="0.25" stroke-width="2"></circle><circle r="93.335" cx="364.41" cy="299.51" stroke="#365aa3" stroke-opacity="0.25" stroke-width="2"></circle><circle r="93.335" cx="803.2" cy="768.11" stroke="#365aa3" stroke-opacity="0.25" stroke-width="2"></circle><circle r="169.585" cx="764.65" cy="251.72" stroke="#365aa3" stroke-opacity="0.25" stroke-width="2"></circle><circle r="78.22" cx="394.31" cy="377.78" stroke="#365aa3" stroke-opacity="0.25" stroke-width="2"></circle><circle r="184.665" cx="1138.26" cy="206.93" stroke="#365aa3" stroke-opacity="0.25" stroke-width="2"></circle><circle r="107.575" cx="1023.85" cy="300.62" stroke="#365aa3" stroke-opacity="0.25" stroke-width="2"></circle><circle r="64.74" cx="46.08" cy="116.3" stroke="#365aa3" stroke-opacity="0.25" stroke-width="2"></circle><circle r="153.355" cx="112.15" cy="112.14" stroke="#365aa3" stroke-opacity="0.25" stroke-width="2"></circle><circle r="128.92" cx="661.86" cy="62.92" stroke="#365aa3" stroke-opacity="0.25" stroke-width="2"></circle><circle r="170.445" cx="798.85" cy="3.7" stroke="#365aa3" stroke-opacity="0.25" stroke-width="2"></circle><circle r="48.565" cx="482.47" cy="0.34" stroke="#365aa3" stroke-opacity="0.25" stroke-width="2"></circle><circle r="72.485" cx="275.91" cy="48.57" stroke="#365aa3" stroke-opacity="0.25" stroke-width="2"></circle><circle r="163.09" cx="173.02" cy="38.13" stroke="#365aa3" stroke-opacity="0.25" stroke-width="2"></circle><circle r="101.04" cx="608.61" cy="516.53" stroke="#365aa3" stroke-opacity="0.25" stroke-width="2"></circle><circle r="88.06" cx="1309.26" cy="175.27" stroke="#365aa3" stroke-opacity="0.25" stroke-width="2"></circle><circle r="79.53" cx="874.23" cy="385.87" stroke="#365aa3" stroke-opacity="0.25" stroke-width="2"></circle><circle r="110.86" cx="211.33" cy="431.75" stroke="#365aa3" stroke-opacity="0.25" stroke-width="2"></circle><circle r="68.85" cx="588.94" cy="467.72" stroke="#365aa3" stroke-opacity="0.25" stroke-width="2"></circle><circle r="130.75" cx="1032.66" cy="502.85" stroke="#365aa3" stroke-opacity="0.25" stroke-width="2"></circle><circle r="156.78" cx="1113.16" cy="293.34" stroke="#365aa3" stroke-opacity="0.25" stroke-width="2"></circle><circle r="61.725" cx="1211.52" cy="243.95" stroke="#365aa3" stroke-opacity="0.25" stroke-width="2"></circle><circle r="179.065" cx="437.13" cy="234.2" stroke="#365aa3" stroke-opacity="0.25" stroke-width="2"></circle><circle r="146.75" cx="316.62" cy="403.33" stroke="#365aa3" stroke-opacity="0.25" stroke-width="2"></circle><circle r="68.865" cx="752.19" cy="262.38" stroke="#365aa3" stroke-opacity="0.25" stroke-width="2"></circle><circle r="179.94" cx="885.21" cy="487.3" stroke="#365aa3" stroke-opacity="0.25" stroke-width="2"></circle><circle r="60.605" cx="721.34" cy="82.85" stroke="#365aa3" stroke-opacity="0.25" stroke-width="2"></circle><circle r="72.315" cx="766.79" cy="323.81" stroke="#365aa3" stroke-opacity="0.25" stroke-width="2"></circle><circle r="76.03" cx="410.59" cy="423.25" stroke="#365aa3" stroke-opacity="0.25" stroke-width="2"></circle><circle r="85.59" cx="1015.74" cy="158.69" stroke="#365aa3" stroke-opacity="0.25" stroke-width="2"></circle><circle r="118.265" cx="58.29" cy="559.87" stroke="#365aa3" stroke-opacity="0.25" stroke-width="2"></circle><circle r="171.31" cx="778.23" cy="0.43" stroke="#365aa3" stroke-opacity="0.25" stroke-width="2"></circle><circle r="127.105" cx="794.3" cy="351.1" stroke="#365aa3" stroke-opacity="0.25" stroke-width="2"></circle><circle r="83.35" cx="161.78" cy="455" stroke="#365aa3" stroke-opacity="0.25" stroke-width="2"></circle><circle r="174.375" cx="916.64" cy="75.66" stroke="#365aa3" stroke-opacity="0.25" stroke-width="2"></circle><circle r="179.045" cx="170.23" cy="74.93" stroke="#365aa3" stroke-opacity="0.25" stroke-width="2"></circle><circle r="118.735" cx="598.97" cy="427.47" stroke="#365aa3" stroke-opacity="0.25" stroke-width="2"></circle><circle r="182.61" cx="24.61" cy="185.1" stroke="#365aa3" stroke-opacity="0.25" stroke-width="2"></circle><circle r="114.125" cx="1042.4" cy="472.29" stroke="#365aa3" stroke-opacity="0.25" stroke-width="2"></circle><circle r="124.88" cx="1129.77" cy="231.15" stroke="#365aa3" stroke-opacity="0.25" stroke-width="2"></circle></g><defs><clipPath id="SvgjsClipPath1000"><rect width="1440" height="560" x="0" y="0"></rect></clipPath></defs></svg>