<svg xmlns="http://www.w3.org/2000/svg" version="1.1" xmlns:xlink="http://www.w3.org/1999/xlink" xmlns:svgjs="http://svgjs.dev/svgjs" width="1440" height="560" preserveAspectRatio="none" viewBox="0 0 1440 560"><g mask="url(&quot;#SvgjsMask1000&quot;)" fill="none"><rect width="1440" height="560" x="0" y="0" fill="#0e2a47"></rect><circle r="7.41" cx="350.22" cy="325.22" filter="url(#SvgjsFilter1001)" fill="rgba(51, 121, 194, 0.58)"></circle><circle r="7.06" cx="1380.3" cy="163.92000000000002" filter="url(#SvgjsFilter1001)" fill="rgba(51, 121, 194, 0.58)"></circle><circle r="4.755" cx="392.995" cy="212.195" filter="url(#SvgjsFilter1001)" fill="rgba(51, 121, 194, 0.58)"></circle><circle r="4.79" cx="1085.6" cy="148.9" filter="url(#SvgjsFilter1001)" fill="rgba(51, 121, 194, 0.58)"></circle><circle r="9.045" cx="41.365" cy="277.14500000000004" filter="url(#SvgjsFilter1001)" fill="rgba(51, 121, 194, 0.58)"></circle><circle r="7.9" cx="148.57" cy="388.91999999999996" filter="url(#SvgjsFilter1001)" fill="rgba(51, 121, 194, 0.58)"></circle><circle r="5.485" cx="461.755" cy="477.005" filter="url(#SvgjsFilter1001)" fill="rgba(51, 121, 194, 0.58)"></circle><circle r="5.465" cx="544.585" cy="402.03499999999997" filter="url(#SvgjsFilter1001)" fill="rgba(51, 121, 194, 0.58)"></circle><circle r="8.175" cx="816.745" cy="417.105" filter="url(#SvgjsFilter1001)" fill="rgba(51, 121, 194, 0.58)"></circle><circle r="6.8" cx="1223.55" cy="82.73" filter="url(#SvgjsFilter1001)" fill="rgba(51, 121, 194, 0.58)"></circle><circle r="8.945" cx="1096.445" cy="32.535" filter="url(#SvgjsFilter1001)" fill="rgba(51, 121, 194, 0.58)"></circle><circle r="7.345" cx="465.08500000000004" cy="442.595" filter="url(#SvgjsFilter1001)" fill="rgba(51, 121, 194, 0.58)"></circle><circle r="7.465" cx="710.5550000000001" cy="440.60499999999996" filter="url(#SvgjsFilter1001)" fill="rgba(51, 121, 194, 0.58)"></circle><circle r="5.365" cx="293.935" cy="353.755" filter="url(#SvgjsFilter1001)" fill="rgba(51, 121, 194, 0.58)"></circle><circle r="9.22" cx="345.93" cy="364.99" filter="url(#SvgjsFilter1001)" fill="rgba(51, 121, 194, 0.58)"></circle><circle r="7.68" cx="69.7" cy="175.83" filter="url(#SvgjsFilter1001)" fill="rgba(51, 121, 194, 0.58)"></circle><circle r="5.55" cx="758.92" cy="415.61" filter="url(#SvgjsFilter1001)" fill="rgba(51, 121, 194, 0.58)"></circle><circle r="7.475" cx="556.125" cy="86.43499999999999" filter="url(#SvgjsFilter1001)" fill="rgba(51, 121, 194, 0.58)"></circle><circle r="7.885" cx="1371.235" cy="452.185" filter="url(#SvgjsFilter1001)" fill="rgba(51, 121, 194, 0.58)"></circle><circle r="6.385" cx="67.145" cy="50.074999999999996" filter="url(#SvgjsFilter1001)" fill="rgba(51, 121, 194, 0.58)"></circle><path d="M771.6 320.9L745 364.5 726.8 368.6 735.8 353.9C737.2 352.6 736.3 350.7 735 349.3 733.7 348.8 731.4 349.2 730.9 350.6L718.1 370.6 700.3 375.1 705.8 357.6 726.9 346.4C726.9 346.4 727.4 345.9 727.4 345.9 728.3 345.1 728.4 343.3 728 341.9 726.6 340.5 725.3 340 723.5 340.9L708.3 349 713.8 331.5 758.4 307C758.4 307 759.3 307 759.3 307 760.2 306.1 760.3 304.3 759.8 302.9 759 301.1 756.7 300.6 755.3 301.9L716.3 323 722.3 301.4 739.8 292C739.8 292 739.8 292 740.2 291.5 741.2 290.6 741.7 289.3 741.2 287.9 739.9 286.5 738.1 285.6 736.3 286.4L724.8 292.9 729.3 277.2C730.3 275.4 729 274 727.6 273.5 725.8 272.6 724 273.4 723.5 275.7L718.5 290.9 713 279.4C711.6 278 709.9 277.1 708.5 278.4 706.6 279.3 706.1 280.6 707 282.4L716.5 299.9 710 321 688.5 281.5C688 280.1 685.8 279.6 684 280.4 683 281.3 682.1 283.1 682.9 284.9L707.5 329.5 702 347 693.8 331.9C693 330 691.2 330 689.3 330.8 688 331.3 687.5 333.5 687.9 334.9L699.5 355.6 694.5 373.5 681.7 360.1 682.4 336.5C682.4 334.7 681.1 333.3 679.3 333.3 678 332.8 676.1 334.5 676.1 336.4L675.6 353.5 662.8 340.1 664.7 289C664.8 287.1 663.4 285.8 661.6 285.7 659.8 285.7 658.4 287 658.4 288.8L656.7 333.6 641.7 317.7 642.3 297.8C642.3 296 641 294.6 639.2 294.6 637.4 294.5 636 295.9 635.9 297.7L635.1 310.8 624.1 299.1C622.8 297.7 621 297.7 619.6 299 618.2 300.3 618.2 302.1 619.5 303.5L630.5 315.2 617.8 314.8C616 314.8 614.6 316.1 614.6 317.9S615.8 321.1 617.6 321.1L636.6 321.7 652 338 607.7 336.7C605.9 336.7 604.5 338 604.4 339.8 604.4 341.6 605.7 343 607.5 343L658.2 344.5 670.9 357.9 653.7 357.5C651.9 357.4 650.5 358.7 650.5 360.5 650.4 362.4 651.8 363.7 653.6 363.8L677.1 364.5 689.4 377.5 672.1 381.5 651.6 369.2C650.3 368.7 648 369.1 647.5 370.4 646.5 372.2 646.9 373.6 648.3 375L663 384 645.6 388 602 361.5C600.2 360.5 598.9 360.9 597.5 362.2 596.5 364 597.4 365.9 598.2 366.8L636.5 390.5 614.7 395.3 598.2 385.3C596.9 383.9 595 384.8 593.6 386.1 593.1 387.5 593.5 389.7 595.3 390.7L606 397.3 590.5 401.4C588.7 401.4 587.7 403.2 588.1 405.4 588.5 406.8 590.3 407.8 591.7 407.3L607.6 403.7 600.5 414.8C599.6 416.6 600.4 418.5 601.8 418.9 603.1 420.3 604.5 419.9 605.4 419 605.9 418.6 605.9 418.6 606.3 418.2L616.3 401.7 638.1 396.9 614.9 434.7C613.5 436 614.4 437.9 615.7 439.3 617 439.7 618.4 439.3 619.3 438.4 619.8 438 619.8 438 619.8 438L647.3 394.4 664.6 390.4 655.6 405.1C654.6 406.8 655 408.2 656.4 409.6 657.7 410.1 659.5 410.1 660.4 409.3 660.9 408.8 660.9 408.8 661.4 408.4L673.7 387.9 691 383.9 686 400.9 665.3 412.6C663.5 413.4 663 415.7 663.4 417 664.7 418.4 666.5 419.4 667.9 418.1L683.1 409.9 678.5 427.4 633 452C631.6 452.4 631.1 454.6 631.5 456 632.8 457.4 634.6 458.3 636.5 457.5L675.5 436.4 669.1 457.5 652 466.5C650.2 467.4 649.7 469.6 651 471 651.4 472.4 653.2 473.3 655.1 472.5L666.6 466 662 481.7C661.5 483.1 662.4 484.9 664.2 485.9 665.1 485.9 666.5 485.5 667.4 484.6 667.4 484.6 667.9 484.2 668.3 483.7L672.8 468 679.3 479.5C679.7 480.9 682 481.4 683.3 481 683.8 480.5 683.8 480.5 683.8 480.5 685.2 479.2 685.2 477.4 684.4 476.5L675.3 459.5 681.4 437.9 702.9 477.5C704.2 478.8 705.6 479.3 707.4 478.5 707.4 478.5 707.9 478 707.9 478 708.8 477.2 709.3 475.8 708.4 474L684.3 428.9 689.3 411.9 697.5 427.1C698.8 428.4 700.6 429.4 702 428.1 702.5 428.5 702.9 428.1 702.9 428.1 703.9 427.2 703.9 425.4 703.5 424L691.8 403.4 697.3 385.8 709.6 398.9 709 422.4C708.9 424.2 710.7 426.1 712.5 426.1 713.9 425.7 715.2 424.4 715.7 423L715.8 405.4 728.5 418.9 727.1 469.5C727.1 471.3 728.4 472.7 730.2 472.8 732 472.8 733.4 471.5 733.5 469.7L734.7 425.4 750.1 441.6 749.5 460.6C749.5 462.5 750.8 463.9 752.6 463.9S755.8 462.6 755.9 460.8L756.2 448.2 767.2 459.8C768.5 461.2 770.4 461.2 771.8 459.9 773.1 458.6 773.2 456.8 771.9 455.4L760.9 443.8 774 443.7C774.9 443.7 775.8 443.7 776.3 443.3 776.8 442.8 777.2 441.5 777.3 440.6 777.3 438.8 776 437.4 774.2 437.3L754.7 437.3 739.3 421 784.1 421.8C785 421.8 785.9 421.8 786.4 421.4 786.9 420.9 787.4 419.6 787.4 418.7 787.4 416.9 786.1 415.5 784.3 415.4L733.2 414.5 720.4 401 738.1 401.9C739 402 739.9 401.1 740.4 400.6 740.8 400.2 741.3 399.8 741.3 398.8 741.4 397 739.6 395.2 738.2 395.6L714.3 394.5 702 381.4 719.7 377 739.8 389.7C741.1 390.2 742.9 390.3 743.8 389.4 744.3 389 744.3 389 743.9 388.5 745.3 387.2 744.9 384.9 743.1 384L728.4 374.9 746.2 370.5 789.8 397.9C791.1 398.4 792.5 398 793.4 397.1 793.9 396.7 793.9 396.7 793.9 396.7 794.8 394.9 794.9 393.1 793.1 392.1L754.8 368.4 776.7 363.6 793.2 373.6C795 374.5 796.3 374.1 797.3 373.2 797.3 373.2 797.7 372.8 797.7 372.8 798.7 371 797.8 369.2 796.9 368.3L785.4 361.6 801.3 358C801.8 357.5 802.2 357.1 802.7 356.6 803.2 356.2 803.7 354.9 803.7 354 802.8 352.1 801.5 350.7 799.7 351.6L783.7 355.2 790.8 344.1C791.8 342.3 790.9 340.5 790.1 339.5 788.3 338.6 786.4 339.4 785 340.8L775.1 357.2 753.6 362.5 776.9 324.7C777.8 322.9 777.5 320.6 776.1 320.1 774.3 319.2 772.5 319.1 771.6 320.9Z" fill="rgba(51, 121, 194, 0.58)"></path><path d="M1264.1 442.1L1284.3 432.3 1283.9 445.8C1283.7 447.2 1284.9 448.8 1286.9 449.4 1288.7 449 1290.3 447.7 1289.9 446L1291 429.1 1306.4 420.8 1304 456C1304.4 457.7 1305.6 459.3 1307 459.5 1309.3 459.5 1310.9 458.2 1310.6 456.5L1313.1 417.6 1337 405.7 1331.7 435.9 1357.3 419 1355.9 445.7 1321.3 463.5C1320.7 463.1 1320.4 463.7 1320 464.2 1319.3 465.3 1319.2 466.7 1319.9 467.9 1320.6 469.2 1322.6 469.7 1324.3 469.3L1355.6 453.1 1354.2 470.5 1339.1 478.3C1338.2 478.5 1337.9 479 1337.5 479.5 1337.2 480.1 1337 481.5 1337.7 482.7 1338.5 484 1340.4 484.5 1341.6 483.8L1353.9 478 1352.9 500.4C1352.4 502.3 1354 503.4 1356 503.9 1357.4 504.1 1359 502.8 1359 500.5L1360.4 478.5 1371.7 485.8C1373.3 486.9 1375.4 486 1376.1 484.9 1377.1 483.3 1376.8 481.5 1375.2 480.5L1360.7 471 1362.2 453.6 1391.1 472.6C1392.7 473.6 1394.5 473.3 1395.5 471.7 1396.2 470.6 1396.2 468.3 1394.6 467.2L1362.5 446.1 1363.9 419.5 1387.3 438.7 1385.7 408.5 1408.1 423.3 1405.9 461.6C1405.9 463.9 1407.5 465 1409 465.2 1410.4 465.3 1412 464.1 1412.5 462.1L1414 427.1 1428.5 436.6 1427.9 453.8C1427.4 455.8 1428.6 457.4 1430.9 457.4 1432.3 457.5 1433.9 456.3 1433.9 454L1434.9 440.8 1453.6 453.1C1455.2 454.2 1457 453.8 1458 452.2S1458.7 448.8 1457.1 447.8L1438.4 435.5 1450.1 429.4C1452.2 428.5 1452.7 426.5 1452 425.3 1451.1 423.1 1449.1 422.6 1447.5 423.9L1432 431.3 1417.5 421.8 1449 406.5C1450.6 405.2 1451.1 403.3 1450.4 402 1449.5 399.9 1447.5 399.4 1446 400.6L1411.6 417.9 1389.2 403.2 1417.5 392.7 1390.6 378.8 1414.5 367 1446.6 388C1448.2 389.1 1450.3 388.2 1451 387.1 1452.1 385.5 1451.7 383.7 1450.1 382.7L1420.7 363.4 1436.6 355.4 1451 364.9C1452.6 366 1454.4 365.6 1455.5 364 1456.2 362.9 1456.1 360.6 1454.5 359.6L1443.3 352.2 1462.9 342.1C1465.1 341.2 1465.6 339.3 1464.3 337.7 1463.6 336.4 1462 335.4 1460.4 336.6L1440.2 346.4 1440.7 332.9C1440.8 331.4 1439.6 329.9 1438.2 329.7 1436.8 329.5 1435.5 330.2 1435.2 330.8 1434.8 331.3 1434.5 331.9 1434.6 332.7L1433.5 349.6 1418.1 357.9 1420.5 322.7C1420.2 320.9 1418.9 319.4 1417.5 319.2 1416.1 319 1414.8 319.7 1414.1 320.8 1413.8 321.3 1413.8 321.3 1414 322.2L1411.4 361.1 1387.5 373 1392.8 342.8 1367.2 359.7 1368.6 333 1403.3 315.2C1404.5 314.5 1405.6 312.9 1404.7 310.8 1403.9 309.5 1402 309 1400.2 309.4L1368.9 325.6 1370.4 308.2 1385.4 300.4C1387.2 300.1 1387.7 298.1 1386.8 296 1386.1 294.7 1384.1 294.2 1382.4 294.6L1370.7 300.7 1371.6 278.3C1372.1 276.4 1370.5 275.3 1368.6 274.8 1367.7 275 1366.4 275.7 1366.1 276.2 1365.7 276.8 1365.4 277.3 1365.6 278.2L1364.1 300.2 1352.9 292.9C1351.3 291.8 1349.2 292.7 1348.5 293.8L1348.5 293.8C1347.4 295.4 1347.8 297.1 1349.4 298.2L1363.8 307.7 1362.3 325.1 1333.5 306.1C1331.8 305.1 1330.1 305.4 1329 307S1328.3 310.4 1329.9 311.5L1362 332.5 1360.6 359.2 1337.2 340 1338.9 370.2 1316.4 355.4 1318.6 317.1C1318.6 314.8 1317 313.7 1315.6 313.5 1314.2 313.4 1312.6 314.6 1312 316.6L1310 351.2 1296.1 342.1 1296.7 324.8C1297.2 322.9 1295.9 321.3 1293.6 321.3 1292.2 321.2 1290.6 322.4 1290.1 324.4L1289.7 337.9 1270.9 325.6C1269.3 324.5 1267.6 324.9 1266.5 326.5S1265.8 329.9 1267.4 330.9L1286.1 343.2 1274.5 349.3C1273.6 349.5 1273.2 350 1272.9 350.6 1272.2 351.7 1272.4 352.5 1272.5 353.4 1273.5 355.5 1275.4 356.1 1277 354.8L1292.6 347.4 1307 356.9 1275.5 372.2C1275.2 372.8 1274.8 373.3 1274.5 373.8 1273.8 374.9 1274 375.8 1274.1 376.7 1275 378.8 1277 379.3 1278.6 378.1L1312.9 360.8 1335.4 375.5 1307 386 1333.9 399.8 1310.1 411.7 1278 390.7C1276.4 389.6 1274.2 390.5 1273.5 391.6 1272.5 393.2 1272.8 395 1274.5 396L1303.3 415 1288 423.3 1273.5 413.8C1271.9 412.7 1270.1 413.1 1269.1 414.7S1268.4 418.1 1270 419.1L1281.2 426.5 1261.6 436.6C1260.7 436.8 1260.4 437.3 1260 437.8 1259.7 438.4 1259.5 439.8 1260.2 441 1260.9 442.3 1262.5 443.3 1264.1 442.1ZM1322.5 387L1345.7 378.5 1344.3 353.8 1363.7 369.6 1384 356.2 1380.3 380.5 1402 391.7 1378.9 400.2 1380.3 424.9 1361.3 409.4 1340.5 422.5 1344.8 398.5 1322.5 387Z" fill="rgba(51, 121, 194, 0.58)"></path><path d="M78.8 36.5L83.1 45.6 76.3 45.3C75.6 45.2 74.8 45.8 74.6 46.8 74.7 47.7 75.4 48.5 76.1 48.6L84.9 49.2 88.9 57.6 70.9 56.3C69.7 56.3 68.9 56.9 69.1 57.8 68.8 58.8 69.4 59.6 70.6 59.6L90.4 61 94.2 68.6 83.3 84.8 75.8 84.4 66.8 65.1C66.5 65 66.3 64.8 66 64.6 65.8 64.4 65 64.3 64.6 64.4 63.5 64.8 63.3 65.8 63.9 66.6L72.1 84.2 63 83.4 58.5 74.6C58.7 74.3 58.4 74.1 58.1 73.9 57.6 73.6 56.9 73.5 56.3 73.8 55.7 74.2 55.4 75.2 55.6 76.1L59.2 83.2 47.8 82.4C47.1 82.3 46.3 82.9 46 83.9 46.2 84.8 46.8 85.6 47.5 85.7L58.2 86.4 54.5 91.9C53.9 92.7 54.4 93.8 54.9 94.2 55.7 94.7 56.9 94.7 57.4 93.9L62.2 86.8 71.4 87.5 61.3 102.4C60.8 103.2 61 104.1 61.8 104.6 62.6 105.1 63.4 105 64 104.2L75.1 87.7 83 88 91.5 105.8 87.4 111.9 67.1 110.5C66.1 110.2 65.1 111.1 65.3 112 65 113 65.8 113.5 66.8 113.8L85.2 115 80 122.7 70.9 122C70.2 121.9 69.2 122.7 69.1 123.5S69.9 125.1 70.9 125.4L77.9 125.9 71.6 135.2C71.1 136 71.5 137.1 72.3 137.6 72.8 137.9 74 138 74.5 137.2L80.8 127.9 84.1 134.4C84.5 135 85.3 135.5 86.3 135.1 87 134.8 87.4 133.5 87.1 132.9L82.9 124.7 88.1 117 96.2 133.7C96.8 134.5 97.6 135 98.7 134.6 99.3 134.2 99.7 133 99.4 132.4L90.3 113.8 94.4 107.7 114 109 117.2 116.2 106.1 132.7C105.6 133.5 105.8 134.3 106.6 134.9 107.4 135.4 108.5 135.4 109.1 134.6L119.1 119.8 123.2 128 118.4 135.1C117.8 135.9 118 136.8 118.8 137.4 119.6 137.9 120.5 137.7 121 136.9L124.8 131.4 129.4 141.1C129.8 141.7 131 142.1 131.6 141.8 132.4 141.2 133 140.4 132.4 139.6L127.6 129.4 135.4 130C136.2 129.8 137 129.2 137.1 128.5 137.2 127.8 136.9 127.2 136.4 126.8 136.4 126.8 136.1 126.6 135.6 126.7L125.8 125.9 121.7 117.7 141 118.8C142 119 142.8 118.4 142.8 117.3 142.7 116.8 142.6 116.4 142.1 116 141.8 115.8 141.6 115.7 141.3 115.5L120.1 114.3 117 107.5 127.9 91.4 136.3 92 145.1 109.9C145.5 111 146.5 111.3 147.3 110.6 148.2 110.5 148.4 109.5 148 108.4L140 92.2 149.4 92.7 153.2 100.7C153.6 101.4 154.5 101.6 155.4 101.5 156.2 100.9 156.8 100.1 156.1 99.3L153.3 93.1 163.4 93.7C164.3 94 164.9 93.2 165.2 92.2 165.1 91.8 164.7 91.1 164.2 90.8 164.2 90.8 163.9 90.6 163.7 90.4L152.9 89.7 157.4 83.1C157.8 82.6 157.8 81.4 157 80.9 156.2 80.4 155.1 80.8 154.8 81.3L149.2 89.5 139.9 89 150.8 72.9C151.4 72.1 150.9 71 150.1 70.5S148.4 70.1 147.9 70.9L135.9 88.7 128.2 88.1 119.7 70.4 124.3 63.5 144.9 65C145.8 64.8 146.6 64.2 146.9 63.3 146.8 62.8 146.4 62.2 145.9 61.8 145.6 61.6 145.4 61.5 144.9 61.6L126.5 60.3 131.7 52.6 141 53.1C141.7 53.2 142.5 52.6 142.8 51.6 142.6 50.7 142 49.9 141.3 49.8L133.8 49.4 139.6 40.9C139.9 40.4 139.7 39.1 139.1 38.7 138.3 38.2 137 38.4 136.7 39L130.9 47.4 128 40.9C127.8 40.7 127.5 40.5 127.2 40.3 126.7 40 126 39.9 125.6 39.9 124.8 40.6 124.5 41.5 124.6 42.4L128.8 50.6 123.6 58.3 115.5 41.7C115.1 40.6 114.1 40.3 113.5 40.7 112.4 41.1 112.1 42.1 112.3 43L121.4 61.5 116.8 68.4 97.2 67.1 93.7 60.2 105.7 42.4C106.3 41.6 106.1 40.7 105.3 40.2 104.5 39.6 103.6 39.8 103.1 40.6L92.2 56.8 88.2 48.3 93.8 40.1C94.1 39.6 93.9 38.2 93.1 37.7 92.3 37.2 91.2 37.6 90.9 38.1L86.4 44.8 81.7 35.1C81.5 34.9 81.5 34.9 81.2 34.7 80.7 34.3 80 34.2 79.5 34.3 78.7 34.9 78.5 35.9 78.8 36.5ZM114.6 71.6L116.7 71.8 117.5 73.5 124.4 87.9 125.2 89.6 124.2 91.2 115.4 104.1 114.3 105.7 112.4 105.6 96.6 104.6 94.7 104.5 93.6 102.6 87 88.4 85.9 86.6 87 85 95.8 72 96.9 70.4 99 70.7 114.6 71.6Z" fill="rgba(51, 121, 194, 0.58)"></path><path d="M495.9 502.7L476.5 497.3 485.8 487.5C486.9 486.6 487 484.6 485.9 482.9 484.3 482 482.3 481.9 481.2 482.8L468.7 495.5 450.8 490.4 476.4 464.9C477.9 463.2 478 461.1 476.4 460.2 475.3 458.6 473.3 458.4 471.8 460.2L443.6 488.3 427.2 484.1 417 446.4 427.4 435.7 468.3 447.2C468.9 447 469.5 446.9 470.1 446.7 470.7 446.5 471.8 445.6 472.3 444.8 473 442.6 471.9 440.9 469.9 440.8L432.6 430.3 445.7 417.5 464.9 422.3C465 422.9 465.6 422.7 466.3 422.6 467.5 422.2 468.6 421.3 468.9 419.9 469.1 418.5 468 416.8 466.4 415.9L450.9 412.1 467 395.8C468.1 394.9 468.2 392.9 467.1 391.2 465.5 390.3 463.5 390.2 462.4 391.1L447.3 406.4 443.8 393.5C443.3 391.6 441.1 390.9 439.9 391.2 438.1 391.7 436.5 393.4 437 395.3L441.5 412 428.4 424.8 419.1 390.2C418.6 388.3 417 387.4 415.2 387.9 413.3 388.4 412.4 390 412.9 391.9L423.2 430.2 412.4 441.7 374.5 431.4 370.7 417.2 399.3 388.2C401 387.1 401 384.5 399.4 383.6 398.3 381.9 396.4 382.4 394.7 383.5L368.7 409.8 363.8 391.8 377 379C378 378.1 378 375.4 377 374.4S373.4 373.4 371.8 374.5L361.8 384.4 356 362.8C355.5 361 353.3 360.2 351.5 360.7 350.2 361.1 348.7 362.8 349.2 364.6L355.1 386.3 340.9 382.8C339.5 382.5 337.6 383 336.9 385.2 336.6 386.6 337.9 388.9 339.3 389.2L357.1 393.7 361.9 411.6 326.2 402C324.1 401.9 322.3 402.4 321.5 404.6 321.3 406 322.5 408.3 323.9 408.6L363.9 419 367.7 433.2 340.1 461.2 325 456.7 314.7 418.4C314.2 416.5 312.6 415.6 310.7 416.1 308.9 416.6 307.4 418.4 307.9 420.2L317.2 454.8 299.4 450.3 294.9 433.6C294.4 431.8 292.8 430.9 291 431.4 289.1 431.9 288.2 433.5 288.7 435.3L292.2 448.3 271.5 442.6C270.1 442.3 267.8 443.6 267.5 445 267.4 447 267.9 448.9 269.9 449L291.4 455.1 280.5 466.1C279.6 467.6 279.4 469.6 280.4 470.7 281.3 471.8 282.7 472.1 284 471.7 284 471.7 284.6 471.6 285 470.8L299.2 457 317 461.5 290.1 489.3C288.4 490.4 288.2 492.5 290 494 290.8 494.4 291.6 494.9 292.8 494.5 293.4 494.4 294 494.2 294.6 494L324.2 463.5 338.6 467.6 348.7 505.3 336.7 517.2 298.1 507C296 506.3 294.3 507.4 294.2 509.4 293.2 511 294.4 512.7 296.6 513.4L331.5 522.5 318.6 536 301.4 531.3C300 531.1 298.3 532.2 297.4 533.7 297.3 535.8 297.8 537.6 299.8 537.7L312.8 541.5 298.7 555.9C297.1 557 297.6 558.9 298.7 560.6 299.5 561 300.9 561.3 302.1 561 302.1 561 302.7 560.8 303.3 560.6L318.4 545.3 322.6 560.8C322.9 562 324.7 563.5 326.5 563 328.4 562.5 329.1 560.3 328.8 559.1L323.6 539.9 336.5 526.5 346.7 564.2C347.2 566 349.4 566.8 351.3 566.3S354 564.2 353.5 562.4L342.3 521 353.3 510 391.2 520.4 395.6 536.4 366.3 565.5C365.4 567.1 365.3 569.1 366.4 570.8 367.2 571.3 368.6 571.5 369.8 571.2 370.4 571 371.1 570.9 371.5 570.1L397.6 543.8 402.4 561.8 389.5 575.2C388.4 576.1 388.3 578.2 389.4 579.8 391 580.8 393 580.9 394 579.9L404.4 569.2 409.7 588.9C410.1 590.2 412.4 591.5 413.7 591.2 415.5 590.7 416.9 588.3 416.5 587.1L411.2 567.3 424.9 571.6C425.6 571.4 426.2 571.2 426.8 571.1 428 570.7 429.1 569.8 429.5 569 429.7 567 428.5 565.3 427 564.4L409.2 559.9 404.4 542 440.1 551.6C442.3 552.3 444 551.2 444.3 549.8 445 547.6 443.9 545.9 442.3 545L402.4 534.6 398 518.5 425.6 490.5 440.6 494.4 451.8 535.8C452.3 537.7 453.8 538.6 455.7 538.1 457.5 537.6 458.4 536 457.9 534.2L447.8 496.5 465.7 501.6 470.9 520.7C471.2 522 473.6 523.3 475.4 522.8 477.3 522.3 478 520.1 477.7 518.9L473.5 503.5 494.3 509.1C494.9 509 494.9 509 495.5 508.8 496.7 508.5 497.8 507.5 498.3 506.7 498.4 504.7 497.3 503 495.9 502.7ZM396 511.1L392.8 514 389.2 512.9 358.5 504.7 354.9 503.6 353.9 499.9 345.7 469.7 344.7 465.9 347.3 463.3 369.7 440.6 372.3 438 376.5 438.8 406.6 447.3 410.8 448.1 411.8 451.8 420 482.1 421 485.8 417.8 488.7 396 511.1Z" fill="rgba(51, 121, 194, 0.58)"></path><path d="M513.9 182.4L476 176.8 468 165.3 480.7 167.3C482 167.9 483.1 166.7 483.6 165.4 483.6 164.4 482.7 162.9 481.6 162.9L464 159.9 455.8 149 469.4 147.6 483.3 159C483.3 159 483.8 159.2 483.8 159.2 484.6 159.6 485.9 159.1 486.7 158.4 487.3 157.1 487.3 156 486.1 155L476.1 146.9 489.8 145.6 519.7 169.2C519.7 169.2 520 169.9 520 169.9 520.9 170.3 522.1 169.8 522.9 169.1 524 168 523.7 166.3 522.3 165.7L496.4 144.8 513 142.7 524.7 152C524.7 152 524.7 152 525.1 152.2 526 152.6 527.1 152.5 527.9 151.9 528.5 150.5 528.6 149 527.5 148L519.7 141.9 531.9 140.5C533.4 140.6 533.9 139.3 533.9 138.2 534 136.7 532.9 135.7 531.2 136L519.2 137 525.5 129.8C526.1 128.5 526.2 127 524.9 126.4 523.8 125.4 522.7 125.5 521.7 126.6L512.4 138.2 495.9 139.9 517 113.5C517.8 112.8 517.5 111.1 516.4 110.1 515.5 109.7 514 109.6 513 110.7L489.3 140.6 475.6 142 483.7 131.9C484.7 130.8 484.2 129.5 483.1 128.5 482.4 127.7 480.7 128 479.9 128.6L469 142.7 455.1 144.5 460.7 131.7 477.2 125.3C478.4 124.8 479 123.5 478.5 122.3 478.5 121.2 476.7 120.4 475.4 120.9L463.4 125.6 469 112.8 504.9 99.3C506.2 98.8 506.7 97.5 506.2 96.2 505.8 94.9 504.4 94.3 503.2 94.8L471.7 106.7 478.3 91.8 492.2 86.3C493.5 85.9 494.1 84.5 493.6 83.3 493.1 82 491.8 81.4 490.5 81.9L481.2 85.2 486 74.2C486.6 72.9 486.1 71.6 484.8 71 483.5 70.4 482.2 70.9 481.6 72.2L476.8 83.2 473.4 74.4C472.9 73.1 471.6 72.5 470.3 73S468.4 74.8 468.9 76.1L474.1 89.4 467.3 104.8 455.3 73.8C454.8 72.5 453.5 71.9 452.2 72.4 450.9 72.9 450.4 74.2 450.9 75.5L464.6 110.9 459 123.7 454.4 111.6C453.9 110.4 452.5 109.8 451.3 110.3 450 110.8 449.4 112.1 449.9 113.4L456.3 129.8 450.9 142.1 443.1 131.3 445.6 113.6C445.6 112.5 444.7 111 443.6 111.1 442.1 110.9 441.2 111.6 440.7 113L438.7 125.7 430.9 114.9 436.5 77C436.7 75.5 436 74.7 434.7 74.1 433.2 74 432.1 75.1 431.8 76L426.5 109.3 416.8 95.6 418.9 81.4C419.5 80 418.4 79 417 78.4 416 78.5 414.5 79.4 414.4 80.9L412.9 90.2 405.5 80.7C405.1 79.5 403.5 79.3 402.1 80.2 401.3 80.9 401.1 82.4 401.8 83.3L409 93.2 399.2 91.6C397.7 91.4 396.7 92.5 396.7 93.6 396.1 94.9 396.8 95.8 397.7 96.1 398.1 96.3 398.1 96.3 398.6 96.5L412.9 98.6 422.6 112.3 389.7 107.3C388.3 106.7 387.3 107.8 386.7 109.2 386.8 110.2 387.5 111.1 388.4 111.4 388.8 111.6 388.8 111.6 388.8 111.6L426.9 117.9 434.8 128.7 422 126.8C420.5 126.6 419.7 127.3 419.1 128.6 419.1 129.7 419.6 131 420.5 131.3 420.9 131.5 420.9 131.5 421.4 131.7L439.1 134.3 447 145.1 433.7 146.6 419.6 135.7C418.5 134.7 416.8 135 416 135.7 415.4 137 415.3 138.5 416.6 139.1L426.7 147.2 413.2 149.1 383 124.8C382.3 124 380.6 124.3 379.8 125 379.2 126.3 379.1 127.8 380.2 128.8L406.1 149.7 389.7 151.3 378.5 142.2C377.4 141.2 375.7 141.5 375.1 142.8 374.2 143.5 374.1 145 375.2 146L383.1 152.1 370.9 153.6C369.8 153.6 368.8 154.7 368.6 156.3 368.9 156.9 369.6 157.7 370.5 158.1 370.5 158.1 370.9 158.3 371.3 158.5L383.5 157 377.4 164.8C376.6 165.5 376.9 167.2 377.6 168.1 378 168.3 378 168.3 378 168.3 379.4 168.8 380.6 168.3 381 167.5L390.1 156.3 406.8 154.2 385.7 180.6C385.2 181.9 385.2 182.9 386.3 184 386.3 184 386.8 184.2 386.8 184.2 387.7 184.5 388.7 184.5 389.7 183.4L413.9 153.6 427.1 152.1 419 162.2C418.4 163.5 418.3 165 419.6 165.6 419.4 166 419.9 166.2 419.9 166.2 420.7 166.6 422 166.1 422.8 165.4L433.7 151.3 447.4 150 442 162.3 425.6 168.7C424.3 169.2 423.5 171 424 172.2 424.7 173.1 426 173.6 427.1 173.6L439.3 168.5 433.7 181.2 398.3 195C397 195.5 396.4 196.8 396.9 198.1 397.4 199.3 398.7 199.9 400 199.4L431 187.4 424.2 202.7 410.9 207.9C409.7 208.4 409.1 209.7 409.6 211S411.4 212.8 412.7 212.3L421.5 208.9 416.7 219.9C416.1 221.2 416.6 222.5 417.9 223 419.2 223.6 420.5 223.1 421.1 221.8L425.9 210.8 429.8 219.9C430 220.5 430.3 221.1 430.7 221.3 431.2 221.5 432.2 221.5 432.9 221.2 434.1 220.7 434.7 219.4 434.2 218.1L428.6 204.7 435.4 189.3 447.9 220.5C448.1 221.1 448.4 221.8 448.8 221.9 449.3 222.1 450.3 222.1 451 221.8 452.2 221.3 452.8 220 452.3 218.8L438.1 183.1 443.7 170.4 448.2 182.9C448.4 183.5 449.3 183.9 449.7 184.1 450.2 184.3 450.6 184.5 451.3 184.2 452.5 183.7 453.3 182 452.6 181.1L446.4 164.2 451.8 151.9 460.1 162.9 457.1 180.5C457.1 181.6 457.6 182.8 458.5 183.2 459 183.4 459 183.4 459.1 183 460.5 183.5 461.9 182.6 462.1 181.1L464 168.3 472.3 179.3 466 217.4C466.1 218.5 466.7 219.3 467.6 219.7 468.1 219.9 468.1 219.9 468.1 219.9 469.6 220.1 470.8 219.6 471 218.1L476.2 184.7 485.9 198.4 483.8 212.7C483.7 214.2 484.4 215 485.2 215.4 485.2 215.4 485.7 215.6 485.7 215.6 487.2 215.8 488.2 214.6 488.6 213.8L489.8 203.8 497 213.8C497.4 214 497.9 214.2 498.3 214.4 498.7 214.5 499.8 214.5 500.4 214.2 501.5 213.1 502 211.8 500.9 210.8L493.8 200.8 503.5 202.5C505 202.6 506.1 201.5 506.4 200.6 506.6 199.1 505.5 198.1 504.1 197.5L489.9 195.4 480 182.2 512.9 187.2C514.4 187.3 515.8 186.4 515.8 185.3 515.9 183.8 515.4 182.6 513.9 182.4Z" fill="rgba(51, 121, 194, 0.58)"></path><path d="M1082.3 101.9L1107.9 148.5 1094.4 193.8 1061.8 159.5 1063.6 106.4C1063.6 106.4 1063.5 105.8 1063.5 105.8 1063.2 104.5 1061.6 103.6 1060.2 103.3 1058.2 103.1 1056.6 104.8 1057.1 106.7L1055.7 153.1 1039.9 136.5 1040.2 116C1040.2 116 1040.1 115.3 1040.1 115.3 1039.8 114.1 1038.2 113.1 1036.8 112.8 1034.8 112.7 1033.3 114.3 1033.7 116.2L1033.1 130.2 1021.6 117.8C1020.7 116.7 1018 116.7 1016.9 117.6 1015.2 118.7 1015.8 121.2 1016.7 122.3L1028.2 134.6 1014.3 134C1012.3 133.8 1010.7 135.5 1011.1 137.4 1011 139.4 1012.7 141 1014.5 140.5L1035 140.9 1050.2 157.7 1003.8 156.3C1001.8 156.1 1000.2 157.8 1000.7 159.7 1000.5 161.7 1002.2 163.2 1004.1 162.8L1057.1 164.6 1089.7 198.9 1043 210.1 997.5 182.1C996 181.2 994.1 181.6 993.1 183.2 992.2 184.7 992.6 186.6 994.2 187.5L1034.3 212.1 1011.9 217.5 994.9 207.1C993.4 206.2 991.5 206.6 990.6 208.1 989.6 209.7 990.1 211.6 991.6 212.5L1003.2 219.6 985.8 223.8C983.7 223.6 982.9 225.8 983.4 227.6 983.8 229.5 985.4 230.4 987.2 230L1003.4 226.1 996.3 237.7C995.4 239.2 995.8 241.1 997.4 242.1S1000.8 242.6 1001.7 241L1012.1 224 1034.5 218.7 1009.9 258.8C1009 260.3 1009.4 262.2 1011 263.1 1012.5 264.1 1014.4 263.6 1015.3 262.1L1043.3 216.6 1089.3 205.6 1075.8 250.9 1030.4 275.6C1028.7 276.7 1028.5 278.7 1029 280.6 1030 282.3 1032.1 282.4 1033.9 282L1074.7 259.7 1068.1 281.7 1050 291.3C1048.3 292.4 1048.1 294.4 1048.5 296.3 1049.6 298 1051.6 298.2 1052.9 297.9L1065 291 1060.4 307.3C1060 308.6 1060.6 311.1 1062.7 311.3 1064.7 311.5 1066.5 311 1066.7 309L1071.4 292.8 1078.2 304.9C1079.3 306.7 1081.3 306.8 1082.6 306.5 1083.7 305.6 1084.6 304.1 1084.3 302.8 1084.3 302.8 1084.2 302.2 1084.2 302.2L1074.6 284.1 1081.2 262.1 1103.4 302.9C1104.5 304.6 1106.5 304.8 1107.7 304.5 1108.8 303.5 1109.8 302 1109.5 300.8 1109.5 300.8 1109.3 300.1 1109.3 300.1L1083.7 253.6 1097.2 208.3 1129.8 242.6 1128 295.7C1127.8 297.7 1129.5 299.2 1131.4 298.8 1133.4 299 1135 297.3 1134.5 295.4L1135.9 249 1151.8 265.6 1151.4 286.1C1151.2 288.1 1152.9 289.7 1154.8 289.2 1156.8 289.4 1158.4 287.7 1157.9 285.9L1158.5 271.9 1170 284.3C1171 285.4 1173.6 285.4 1174.7 284.5 1175.8 283.6 1176.1 282.2 1175.8 280.9 1175.7 280.3 1175.5 279.7 1174.7 279.2L1163.2 266.8 1177.2 267.4C1179.2 267.6 1180.8 265.9 1180.3 264 1180.3 264 1180.2 263.4 1180.2 263.4 1179.9 262.2 1178.3 261.2 1176.9 260.9L1156.5 260.5 1140.6 243.9 1187 245.3C1189 245.5 1190.6 243.8 1190.2 241.9 1190.2 241.9 1190 241.3 1190 241.3 1189.7 240.1 1188.2 239.1 1186.8 238.8L1133.7 237 1101.1 202.7 1147.2 191.7 1192.7 219.6C1194.3 220.6 1196.1 220.1 1197.1 218.6 1198 217 1197.6 215.2 1196 214.2L1156.5 189.5 1178.9 184.1 1195.9 194.5C1197.5 195.4 1199.3 195 1200.3 193.5S1200.8 190 1199.2 189.1L1187.7 182 1203.8 178.1C1205.7 177.7 1206.7 176.1 1206.2 174.3 1205.8 172.4 1204.2 171.4 1202.4 171.9L1186.2 175.8 1193.3 164.2C1193.7 163.4 1194.2 162.7 1193.9 161.4S1192.8 159.7 1192.1 159.2C1190.5 158.3 1188.7 158.7 1187.7 160.3L1177.3 177.2 1154.9 182.6 1179.5 142.5C1180 141.7 1180.5 140.9 1180.2 139.7 1180 139.1 1179.1 138 1178.3 137.5 1176.8 136.6 1174.9 137 1174 138.6L1146 184.1 1100 195.1 1113.5 149.8 1160 124.1C1161.1 123.2 1162 121.7 1161.7 120.4 1161.7 120.4 1161.6 119.8 1161.6 119.8 1160.5 118.1 1158.5 117.9 1157.2 118.2L1116.5 140.5 1123.1 118.5 1141.2 108.9C1142.3 108 1143.2 106.4 1142.9 105.2 1142.9 105.2 1142.8 104.6 1142.8 104.6 1141.7 102.8 1139.7 102.7 1138.5 103L1126.3 109.8 1130.9 93.6C1130.8 93 1131.3 92.2 1131.1 91.6 1130.8 90.3 1129.9 89.2 1128.5 88.9 1126.5 88.7 1124.6 89.2 1124.4 91.2L1119.8 107.4 1112.9 95.3C1111.8 93.5 1109.8 93.4 1108.6 93.7 1106.9 94.7 1106.7 96.8 1107 98L1116.6 116.1 1110 138.1 1087.8 97.3C1086.7 95.6 1084.7 95.4 1083.4 95.7 1082 98.1 1081.2 100.2 1082.3 101.9Z" fill="rgba(51, 121, 194, 0.58)"></path><path d="M978.7 490.6L985 479.8 989.4 487C989.8 487.8 991 488.2 992.2 487.8 993 487 993.4 485.8 993 485L987.4 475.4 993.4 465.4 1004.6 484.9C1005.4 486.1 1006.6 486.5 1007.4 485.7 1008.6 485.3 1009 484.1 1008.2 482.9L995.8 461.4 1000.9 452.1 1025.3 452.1 1030.2 460.1 1016.6 482.9C1016.6 483.3 1016.6 483.7 1016.6 484.1 1016.6 484.5 1017 485.3 1017.4 485.7 1018.6 486.5 1019.8 486.1 1020.2 484.9L1032.6 464 1038.2 474 1032.2 484.8C1031.8 484.9 1031.8 485.3 1031.8 485.7 1031.8 486.5 1032.2 487.2 1033 487.6 1033.8 488 1035 487.6 1035.8 486.8L1040.6 478 1047.9 490.4C1048.3 491.2 1049.5 491.6 1050.7 491.2 1051.5 490.4 1051.9 489.2 1051.4 488.4L1044.6 476.8 1053 476.8C1054.2 476.8 1055 475.6 1055 474.8 1055 473.6 1054.2 472.4 1053 472.4L1042.2 472.4 1036.6 462.4 1059 462.4C1060.2 462.4 1061 461.6 1061 460.4 1061 459.2 1060.2 458.4 1059 458.4L1034.2 458.4 1028.9 450.1 1041.3 428.8 1050.5 428.8 1063.3 450.8C1063.7 452 1065.3 452.4 1066.1 451.6 1067.3 451.2 1067.3 450 1066.9 448.8L1055.3 428.8 1066.9 428.8 1072.5 438.7C1072.9 439.5 1074.5 439.9 1075.3 439.5S1076.5 437.5 1076.1 436.3L1071.7 428.7 1085.7 428.7C1086.9 428.7 1087.7 427.5 1087.7 426.3 1087.7 425.5 1086.9 424.3 1085.7 424.3L1071.7 424.3 1076 416.3C1076.4 415.5 1076.4 414.3 1075.2 413.5 1074.4 413.1 1072.8 413.5 1072.4 414.3L1066.9 424.4 1055.3 424.4 1066.8 404.4C1067.2 403.2 1067.2 402 1066 401.2 1065.2 400.8 1063.6 401.2 1063.2 402L1050.5 424.4 1041.3 424.4 1028.8 403.3 1034 394.8 1058.8 394.8C1060 394.8 1060.8 394 1060.8 392.8 1060.8 391.6 1060 390.4 1058.8 390.4L1036.4 390.4 1041.9 380.4 1052.7 380.4C1053.9 380.4 1054.7 379.6 1054.7 378.4 1054.7 377.2 1053.9 376.4 1052.7 376.4L1044.3 376.4 1051.1 364.8C1051.5 364 1051.1 362.4 1050.3 362 1049.1 361.6 1047.9 361.6 1047.5 362.8L1040.3 374.8 1035.5 366.4C1034.7 365.6 1033.5 365.2 1032.7 365.6 1031.9 366 1031.5 366.9 1031.5 367.7 1031.5 367.7 1031.5 368.1 1031.9 368.4L1037.9 379.2 1032.4 389.2 1019.9 368.5C1019.5 367.3 1018.3 366.9 1017.1 367.7 1016.7 368.1 1016.3 368.5 1016.3 369.3 1016.3 369.7 1016.3 370.1 1016.3 370.5L1030 393.3 1025.2 401.3 1000.8 401.3 995.6 392.2 1007.9 370.5C1008.7 369.3 1008.3 368.1 1007.1 367.7 1006.3 366.9 1005.1 367.3 1004.3 368.5L993.2 388.2 987.1 378.2 992.7 368.6C993.1 367.8 992.7 366.6 991.9 365.8 990.7 365.4 989.5 365.4 989.1 366.6L984.7 373.8 978.3 363C977.9 361.8 976.7 361.8 975.5 362.2 975.1 362.6 974.7 363.4 974.7 364.2 974.7 364.2 974.7 364.6 974.7 365L981.5 376.6 971.5 376.6C970.7 376.6 969.5 377.4 969.5 378.6 969.5 379.8 970.7 380.6 971.5 380.6L983.9 380.6 990 390.6 965.6 390.6C964.4 390.6 963.6 391.8 963.6 393S964.4 395 965.6 395L992.4 395 997.2 403.3 984.9 424.6 974.5 424.6 961.6 402.2C960.8 401.4 959.6 401.1 958.4 401.5 958 401.9 957.6 402.7 957.6 403.5 957.6 403.9 957.6 404.3 958 404.7L969.7 424.6 958.1 424.7 952 414.7C951.6 413.9 950.4 413.5 949.2 413.9 948.4 414.7 948 415.9 948.4 416.7L953.3 424.7 940.5 424.7C939.7 424.7 938.5 425.9 938.5 426.7 938.5 427.9 939.7 429.1 940.5 429.1L953.3 429.1 948.5 436.7C948.5 437.1 948.5 437.5 948.5 437.9 948.5 438.7 948.9 439.5 949.3 439.9 950.5 440.3 951.7 439.9 952.5 439.1L958.1 429.1 969.7 429 958.1 449.1C957.3 450.3 957.7 451.5 958.5 451.9 959.7 452.7 960.9 452.2 961.7 451.4L974.5 429 984.9 429 997.3 450.1 992.6 458.6 965.8 458.6C964.6 458.6 963.8 459.4 963.8 460.6 963.8 461.8 964.6 462.6 965.8 462.6L990.2 462.6 984.2 472.6 971.8 472.6C971 472.6 969.8 473.8 969.8 475 969.8 476.2 971 477 971.8 477L981.8 477 975 488.6C975.1 489 975.1 489 975.1 489.4 975.1 490.2 975.5 491 975.9 491.4 977.1 491.8 978.3 491.4 978.7 490.6ZM989.7 429L988.5 426.6 989.7 424.6 999.6 407.3 1000.8 405.3 1003.2 405.3 1022.8 405.3 1025.2 405.3 1026.4 407.3 1036.5 424.4 1037.7 426.4 1036.5 428.8 1026.5 445.7 1025.3 448.1 1022.9 448.1 1003.3 448.1 1000.9 448.1 999.7 445.7 989.7 429Z" fill="rgba(51, 121, 194, 0.58)"></path><path d="M792.9 98.6L783.4 95.4 788.2 90.8C788.8 90.3 788.9 89.3 788.4 88.4 787.6 87.9 786.6 87.8 786 88.3L779.5 94.3 770.7 91.4 784 79.2C784.8 78.4 784.9 77.4 784.2 76.9 783.6 76 782.6 75.9 781.8 76.8L767.1 90.2 759 87.8 754.8 68.7 760.2 63.6 780.4 70.2C780.7 70.1 781 70.1 781.3 70 781.6 69.9 782.2 69.5 782.4 69.1 782.8 68 782.3 67.2 781.3 67.1L762.9 61 769.7 54.9 779.2 57.7C779.3 58 779.6 57.9 779.9 57.9 780.5 57.7 781.1 57.3 781.3 56.6 781.4 55.9 780.9 55 780.2 54.5L772.5 52.3 780.9 44.5C781.4 44.1 781.5 43.1 781 42.2 780.3 41.7 779.3 41.6 778.7 42.1L770.8 49.4 769.4 42.8C769.2 41.9 768.1 41.5 767.5 41.6 766.5 41.8 765.7 42.7 765.9 43.6L767.8 52 761 58.1 757.1 40.7C756.9 39.7 756.1 39.2 755.2 39.4 754.2 39.6 753.7 40.4 753.9 41.3L758.3 60.7 752.6 66.2 733.9 60.2 732.3 53.1 747.2 39.2C748.1 38.7 748.2 37.4 747.4 36.9 746.9 36 745.9 36.2 745.1 36.8L731.5 49.3 729.4 40.2 736.3 34.1C736.8 33.7 736.9 32.4 736.4 31.8S734.6 31.2 733.8 31.7L728.6 36.5 726.2 25.6C726 24.6 724.9 24.2 724 24.4 723.3 24.6 722.5 25.4 722.7 26.3L725.2 37.3 718.2 35.2C717.5 35 716.5 35.3 716.1 36.3 715.9 37 716.5 38.2 717.2 38.4L726 41 728 50.1 710.4 44.5C709.4 44.4 708.4 44.6 708 45.7 707.9 46.4 708.4 47.5 709.1 47.7L728.9 53.8 730.5 61 716.1 74.4 708.6 71.8 704.3 52.4C704.1 51.5 703.3 51 702.4 51.2 701.4 51.4 700.6 52.2 700.8 53.2L704.7 70.7 696 68 694.1 59.6C693.9 58.7 693.1 58.2 692.2 58.4 691.2 58.6 690.8 59.3 691 60.3L692.4 66.8 682.2 63.6C681.5 63.4 680.3 64 680.1 64.7 680 65.7 680.2 66.6 681.2 66.7L691.9 70.2 686.1 75.5C685.7 76.2 685.6 77.2 686 77.8 686.5 78.3 687.1 78.5 687.8 78.4 687.8 78.4 688.1 78.3 688.3 77.9L695.7 71.4 704.5 74 690.4 87.3C689.5 87.8 689.4 88.8 690.3 89.6 690.7 89.9 691 90.1 691.7 90 692 89.9 692.3 89.8 692.6 89.8L708 75.2 715.1 77.5 719.4 96.6 713.1 102.2 694.1 96.3C693 95.9 692.1 96.4 692 97.4 691.5 98.2 692 99.1 693.1 99.5L710.4 104.8 703.6 111.2 695.1 108.5C694.4 108.4 693.6 108.9 693.1 109.6 693 110.6 693.2 111.6 694.2 111.7L700.6 113.9 693.3 120.7C692.4 121.3 692.6 122.2 693.1 123.1 693.5 123.3 694.2 123.5 694.8 123.4 694.8 123.4 695.1 123.3 695.5 123.2L703.3 115.9 705.1 123.7C705.2 124.3 706 125.1 707 124.9 707.9 124.7 708.3 123.6 708.2 123L706 113.3 712.8 106.9 717.1 125.9C717.3 126.9 718.3 127.3 719.3 127.1S720.7 126.1 720.5 125.2L715.8 104.3 721.6 99 740.3 105 742.1 113.2 726.8 127.1C726.3 127.8 726.2 128.8 726.7 129.7 727.1 129.9 727.8 130.1 728.4 130 728.7 129.9 729.1 129.8 729.3 129.4L742.9 116.9 744.9 126 738.2 132.4C737.6 132.8 737.5 133.9 738 134.7 738.8 135.2 739.8 135.3 740.3 134.9L745.8 129.7 748 139.7C748.1 140.3 749.3 141.1 749.9 140.9 750.8 140.7 751.6 139.6 751.4 138.9L749.2 129 756 131.4C756.3 131.3 756.6 131.2 756.9 131.2 757.5 131 758.1 130.6 758.3 130.2 758.4 129.2 757.9 128.3 757.1 127.8L748.4 125.2 746.3 116.1 764 121.7C765.1 122.1 765.9 121.6 766.1 120.9 766.5 119.9 766 119 765.2 118.5L745.5 112.4 743.7 104.3 758.1 90.9 765.5 93.2 770.2 114.1C770.4 115.1 771.1 115.5 772.1 115.3 773 115.1 773.5 114.4 773.3 113.4L769 94.4 777.9 97.3 780 107C780.2 107.6 781.3 108.4 782.3 108.2 783.2 107.9 783.6 106.9 783.5 106.2L781.7 98.4 792 101.7C792.3 101.7 792.3 101.7 792.6 101.6 793.2 101.4 793.8 101 794 100.6 794.1 99.6 793.6 98.7 792.9 98.6ZM742.9 100.5L741.2 101.9 739.4 101.3 724.3 96.5 722.5 95.9 722.1 94 718.7 78.7 718.2 76.8 719.6 75.5 731.3 64.7 732.6 63.5 734.7 64 749.6 68.9 751.7 69.4 752.1 71.3 755.5 86.6 755.9 88.4 754.2 89.8 742.9 100.5Z" fill="rgba(51, 121, 194, 0.58)"></path><path d="M1357.7 140.8L1366.7 134.1 1367.7 140.7C1367.8 141.5 1368.6 142.1 1369.6 142.2 1370.4 141.8 1371.1 141.1 1370.7 140.2L1369.7 131.9 1376.5 126.3 1378.6 143.8C1378.9 144.7 1379.7 145.3 1380.4 145.3 1381.5 145.1 1382.2 144.3 1381.9 143.5L1379.5 124.1 1390.1 116 1390.3 131.4 1401.3 120.7 1403.1 133.9 1387.8 145.9C1387.5 145.8 1387.3 146.1 1387.2 146.4 1387 147 1387 147.7 1387.5 148.2 1388 148.8 1389 148.8 1389.8 148.5L1403.7 137.6 1404.6 146.3 1397.9 151.5C1397.5 151.7 1397.4 152 1397.3 152.2 1397.1 152.5 1397.2 153.3 1397.7 153.8 1398.1 154.3 1399.1 154.4 1399.7 153.9L1405.1 150 1406.8 161C1406.7 162 1407.6 162.4 1408.6 162.5 1409.3 162.4 1410 161.7 1409.8 160.5L1408.4 149.6 1414.6 152.1C1415.5 152.5 1416.5 151.9 1416.7 151.3 1417.1 150.4 1416.7 149.6 1415.8 149.2L1407.9 145.9 1406.9 137.2 1422.9 143.8C1423.8 144.2 1424.6 143.8 1425 142.9 1425.2 142.3 1425 141.2 1424.1 140.8L1406.4 133.5 1404.6 120.3 1417.9 127.5 1414.2 112.9 1426.6 118 1429.2 137C1429.4 138.2 1430.3 138.5 1431 138.5 1431.7 138.4 1432.4 137.7 1432.4 136.7L1429.9 119.3 1437.9 122.6 1439.2 131.1C1439.1 132.2 1439.9 132.8 1441 132.6 1441.8 132.5 1442.4 131.8 1442.2 130.6L1441.4 124.1 1451.8 128.4C1452.7 128.7 1453.5 128.4 1453.9 127.5S1453.9 125.8 1453 125.4L1442.7 121.1 1447.8 117C1448.8 116.4 1448.8 115.4 1448.4 114.8 1447.7 113.9 1446.7 113.8 1446.1 114.6L1439.1 119.7 1431.1 116.4 1445.1 105.9C1445.8 105.1 1445.9 104.1 1445.4 103.6 1444.8 102.6 1443.8 102.6 1443.1 103.3L1427.9 115 1415.4 109.9 1428.4 102.1 1413.9 97.8 1424.5 89.7 1442.2 97.1C1443.1 97.4 1444.1 96.8 1444.3 96.2 1444.7 95.3 1444.3 94.5 1443.4 94.1L1427.2 87.4 1434.2 82 1442.2 85.3C1443.1 85.7 1443.9 85.3 1444.3 84.4 1444.6 83.8 1444.3 82.7 1443.4 82.3L1437.2 79.8 1445.9 73C1446.9 72.3 1447 71.3 1446.2 70.7 1445.7 70.1 1444.8 69.8 1444.2 70.5L1435.2 77.2 1434.1 70.5C1434.1 69.8 1433.3 69.2 1432.6 69.2 1431.9 69.3 1431.3 69.7 1431.2 70 1431.1 70.3 1431 70.6 1431.2 71L1432.2 79.4 1425.4 84.9 1423.3 67.4C1422.9 66.6 1422.2 65.9 1421.5 66 1420.7 66 1420.2 66.5 1420 67.1 1419.8 67.4 1419.8 67.4 1420 67.8L1422.4 87.2 1411.8 95.2 1411.6 79.9 1400.6 90.6 1398.8 77.4 1414.1 65.4C1414.6 64.9 1415 64 1414.4 63.1 1413.9 62.5 1412.9 62.5 1412 62.8L1398.2 73.7 1397.3 65 1403.9 59.8C1404.8 59.4 1404.8 58.4 1404.2 57.5 1403.7 56.9 1402.7 56.9 1401.9 57.2L1396.7 61.3 1395.1 50.2C1395.1 49.2 1394.3 48.9 1393.2 48.8 1392.8 49 1392.3 49.4 1392.2 49.7 1392 50 1391.9 50.3 1392.1 50.7L1393.5 61.7 1387.2 59.1C1386.4 58.8 1385.4 59.4 1385.2 60L1385.2 60C1384.8 60.9 1385.1 61.7 1386 62.1L1394 65.4 1394.9 74.1 1379 67.5C1378.1 67.1 1377.2 67.5 1376.9 68.3S1376.8 70.1 1377.7 70.4L1395.5 77.8 1397.3 91 1384 83.8 1387.6 98.4 1375.2 93.3 1372.7 74.2C1372.5 73.1 1371.6 72.7 1370.9 72.8 1370.2 72.8 1369.5 73.6 1369.4 74.6L1371.7 91.8 1364 88.6 1362.7 80.1C1362.7 79.1 1362 78.5 1360.8 78.7 1360.1 78.7 1359.4 79.5 1359.4 80.5L1360.4 87.2 1350.1 82.9C1349.2 82.5 1348.4 82.9 1348 83.8S1348 85.5 1348.9 85.9L1359.2 90.1 1354.1 94.2C1353.6 94.4 1353.5 94.7 1353.4 95 1353.1 95.6 1353.3 96 1353.5 96.4 1354.1 97.4 1355.1 97.5 1355.8 96.7L1362.8 91.6 1370.7 94.9 1356.7 105.4C1356.6 105.7 1356.5 106 1356.4 106.3 1356.1 106.9 1356.3 107.3 1356.5 107.7 1357.1 108.7 1358.1 108.7 1358.8 108L1374 96.2 1386.4 101.4 1373.5 109.2 1388 113.5 1377.4 121.5 1359.7 114.2C1358.8 113.8 1357.8 114.5 1357.6 115.1 1357.2 116 1357.5 116.8 1358.4 117.2L1374.4 123.8 1367.6 129.3 1359.6 126C1358.8 125.6 1357.9 126 1357.6 126.8S1357.5 128.6 1358.4 128.9L1364.6 131.5 1355.9 138.3C1355.5 138.5 1355.4 138.8 1355.3 139.1 1355.2 139.4 1355.2 140.1 1355.7 140.6 1356.1 141.2 1357 141.5 1357.7 140.8ZM1381.2 108.2L1391.8 101.9 1388.7 89.9 1399.8 95.8 1408.5 87.3 1409 99.6 1420.7 103.1 1410.1 109.4 1413.1 121.4 1402.4 115.6 1393.4 124 1393.2 111.8 1381.2 108.2Z" fill="rgba(51, 121, 194, 0.58)"></path></g><defs><mask id="SvgjsMask1000"><rect width="1440" height="560" fill="#ffffff"></rect></mask><filter id="SvgjsFilter1001"><feGaussianBlur stdDeviation="1"></feGaussianBlur></filter></defs></svg>