<svg xmlns="http://www.w3.org/2000/svg" version="1.1" xmlns:xlink="http://www.w3.org/1999/xlink" xmlns:svgjs="http://svgjs.dev/svgjs" width="1440" height="560" preserveAspectRatio="none" viewBox="0 0 1440 560"><g mask="url(&quot;#SvgjsMask1000&quot;)" fill="none"><rect width="1440" height="560" x="0" y="0" fill="#0e2a47"></rect><g transform="translate(0, 0)" stroke-linecap="round"><path d="M260 169.13 L260 390.87" stroke-width="15" stroke="#dd1133"></path><path d="M280 173.06 L280 386.94" stroke-width="15" stroke="#3a7cc3"></path><path d="M300 237.72 L300 322.27" stroke-width="15" stroke="#3a7cc3"></path><path d="M320 224.76 L320 335.24" stroke-width="15" stroke="#dd1133"></path><path d="M340 253.78 L340 306.23" stroke-width="15" stroke="#dd1133"></path><path d="M360 130.06 L360 429.94" stroke-width="15" stroke="#3a7cc3"></path><path d="M380 259.25 L380 300.75" stroke-width="15" stroke="#dd1133"></path><path d="M400 133.97 L400 426.03" stroke-width="15" stroke="#3a7cc3"></path><path d="M420 202.63 L420 357.37" stroke-width="15" stroke="#3a7cc3"></path><path d="M440 142.81 L440 417.19" stroke-width="15" stroke="#3a7cc3"></path><path d="M460 230.4 L460 329.61" stroke-width="15" stroke="#dd1133"></path><path d="M480 133.34 L480 426.66" stroke-width="15" stroke="#3a7cc3"></path><path d="M500 162.66 L500 397.34" stroke-width="15" stroke="#dd1133"></path><path d="M520 132.59 L520 427.41" stroke-width="15" stroke="#dd1133"></path><path d="M540 208.86 L540 351.14" stroke-width="15" stroke="#dd1133"></path><path d="M560 231.28 L560 328.72" stroke-width="15" stroke="#3a7cc3"></path><path d="M580 224.75 L580 335.25" stroke-width="15" stroke="#dd1133"></path><path d="M600 119.06 L600 440.94" stroke-width="15" stroke="#3a7cc3"></path><path d="M620 127.24 L620 432.76" stroke-width="15" stroke="#3a7cc3"></path><path d="M640 140.87 L640 419.13" stroke-width="15" stroke="#dd1133"></path><path d="M660 246.15 L660 313.85" stroke-width="15" stroke="#3a7cc3"></path><path d="M680 218.26 L680 341.74" stroke-width="15" stroke="#3a7cc3"></path><path d="M700 173.19 L700 386.81" stroke-width="15" stroke="#dd1133"></path><path d="M720 217.93 L720 342.07" stroke-width="15" stroke="#dd1133"></path><path d="M740 134.82 L740 425.18" stroke-width="15" stroke="#dd1133"></path><path d="M760 129.32 L760 430.68" stroke-width="15" stroke="#dd1133"></path><path d="M780 216.41 L780 343.59" stroke-width="15" stroke="#3a7cc3"></path><path d="M800 152.01 L800 407.99" stroke-width="15" stroke="#dd1133"></path><path d="M820 106.76 L820 453.24" stroke-width="15" stroke="#dd1133"></path><path d="M840 131.72 L840 428.27" stroke-width="15" stroke="#3a7cc3"></path><path d="M860 211.38 L860 348.62" stroke-width="15" stroke="#dd1133"></path><path d="M880 180.3 L880 379.7" stroke-width="15" stroke="#3a7cc3"></path><path d="M900 114.03 L900 445.97" stroke-width="15" stroke="#dd1133"></path><path d="M920 109.95 L920 450.05" stroke-width="15" stroke="#3a7cc3"></path><path d="M940 118.33 L940 441.67" stroke-width="15" stroke="#dd1133"></path><path d="M960 153.06 L960 406.94" stroke-width="15" stroke="#dd1133"></path><path d="M980 260.18 L980 299.82" stroke-width="15" stroke="#3a7cc3"></path><path d="M1000 155.83 L1000 404.17" stroke-width="15" stroke="#dd1133"></path><path d="M1020 251.74 L1020 308.26" stroke-width="15" stroke="#3a7cc3"></path><path d="M1040 188.14 L1040 371.86" stroke-width="15" stroke="#dd1133"></path><path d="M1060 192.94 L1060 367.06" stroke-width="15" stroke="#dd1133"></path><path d="M1080 194.47 L1080 365.52" stroke-width="15" stroke="#dd1133"></path><path d="M1100 176.08 L1100 383.92" stroke-width="15" stroke="#dd1133"></path><path d="M1120 131.79 L1120 428.21" stroke-width="15" stroke="#dd1133"></path><path d="M1140 115.47 L1140 444.53" stroke-width="15" stroke="#3a7cc3"></path><path d="M1160 218.28 L1160 341.72" stroke-width="15" stroke="#3a7cc3"></path><path d="M1180 131.16 L1180 428.84" stroke-width="15" stroke="#3a7cc3"></path></g></g><defs><mask id="SvgjsMask1000"><rect width="1440" height="560" fill="#ffffff"></rect></mask></defs></svg>