<svg xmlns="http://www.w3.org/2000/svg" version="1.1" xmlns:xlink="http://www.w3.org/1999/xlink" xmlns:svgjs="http://svgjs.dev/svgjs" width="1440" height="560" preserveAspectRatio="none" viewBox="0 0 1440 560"><g mask="url(&quot;#SvgjsMask1725&quot;)" fill="none"><rect width="1440" height="560" x="0" y="0" fill="url(&quot;#SvgjsLinearGradient1726&quot;)"></rect><path d="M 0,186 C 20.6,221.6 61.8,348.6 103,364 C 144.2,379.4 164.8,239.8 206,263 C 247.2,286.2 267.8,525.8 309,480 C 350.2,434.2 370.8,27.6 412,34 C 453.2,40.4 473.8,485.8 515,512 C 556.2,538.2 576.8,170.2 618,165 C 659.2,159.8 679.8,481.4 721,486 C 762.2,490.6 782.8,223 824,188 C 865.2,153 885.8,326 927,311 C 968.2,296 988.8,64.4 1030,113 C 1071.2,161.6 1091.8,538.8 1133,554 C 1174.2,569.2 1194.8,226.2 1236,189 C 1277.2,151.8 1298.2,400 1339,368 C 1379.8,336 1419.8,96.8 1440,29L1440 560L0 560z" fill="#184a7e"></path><path d="M 0,365 C 15.2,318.8 45.6,102.2 76,134 C 106.4,165.8 121.6,535 152,524 C 182.4,513 197.6,78.6 228,79 C 258.4,79.4 273.6,534.4 304,526 C 334.4,517.6 349.6,34 380,37 C 410.4,40 425.6,519.4 456,541 C 486.4,562.6 501.6,144.2 532,145 C 562.4,145.8 577.6,556 608,545 C 638.4,534 653.6,134.8 684,90 C 714.4,45.2 729.6,297.8 760,321 C 790.4,344.2 805.6,201.6 836,206 C 866.4,210.4 881.6,380 912,343 C 942.4,306 957.6,-16.6 988,21 C 1018.4,58.6 1033.6,510.6 1064,531 C 1094.4,551.4 1109.6,126.8 1140,123 C 1170.4,119.2 1185.6,509.2 1216,512 C 1246.4,514.8 1261.6,162.6 1292,137 C 1322.4,111.4 1338.4,361.6 1368,384 C 1397.6,406.4 1425.6,276 1440,249L1440 560L0 560z" fill="#2264ab"></path></g><defs><mask id="SvgjsMask1725"><rect width="1440" height="560" fill="#ffffff"></rect></mask><linearGradient x1="15.28%" y1="-39.29%" x2="84.72%" y2="139.29%" gradientUnits="userSpaceOnUse" id="SvgjsLinearGradient1726"><stop stop-color="#0e2a47" offset="0"></stop><stop stop-color="rgba(0, 43, 158, 1)" offset="1"></stop></linearGradient></defs></svg>