<svg xmlns="http://www.w3.org/2000/svg" version="1.1" xmlns:xlink="http://www.w3.org/1999/xlink" xmlns:svgjs="http://svgjs.dev/svgjs" width="1440" height="560" preserveAspectRatio="none" viewBox="0 0 1440 560"><g mask="url(&quot;#SvgjsMask1000&quot;)" fill="none"><rect width="1440" height="560" x="0" y="0" fill="#0e2a47"></rect><path d="M 0,174 C 57.6,145.6 172.8,36.8 288,32 C 403.2,27.2 460.8,128.6 576,150 C 691.2,171.4 748.8,136.6 864,139 C 979.2,141.4 1036.8,180.8 1152,162 C 1267.2,143.2 1382.4,68.4 1440,45L1440 560L0 560z" fill="#184a7e"></path><path d="M 0,385 C 96,401.4 288,463 480,467 C 672,471 768,409 960,405 C 1152,401 1344,438.6 1440,447L1440 560L0 560z" fill="#2264ab"></path></g><defs><mask id="SvgjsMask1000"><rect width="1440" height="560" fill="#ffffff"></rect></mask></defs></svg>